inDegrees=yes
name=ik_S41_A10_T01
DataType=double
version=3
OpenSimVersion=4.3-2021-08-27-4bc7ad9
endheader
time	pelvis_tilt	pelvis_list	pelvis_rotation	pelvis_tx	pelvis_ty	pelvis_tz	hip_flexion_r	hip_adduction_r	hip_rotation_r	knee_angle_r	knee_angle_r_beta	ankle_angle_r	subtalar_angle_r	mtp_angle_r	hip_flexion_l	hip_adduction_l	hip_rotation_l	knee_angle_l	knee_angle_l_beta	ankle_angle_l	subtalar_angle_l	mtp_angle_l	lumbar_extension	lumbar_bending	lumbar_rotation	arm_flex_r	arm_add_r	arm_rot_r	elbow_flex_r	pro_sup_r	wrist_flex_r	wrist_dev_r	arm_flex_l	arm_add_l	arm_rot_l	elbow_flex_l	pro_sup_l	wrist_flex_l	wrist_dev_l
10.25999999999987	-0.419131820669393	-0.04486286953742619	23.84975867708467	0	0.9399999999999999	0	44.84701853041673	-10.00018153294858	-10.00041680441655	54.81683531359226	0.9567342617456832	0	0	0	44.84701853041673	-10.00018153294858	-10.00041680441655	54.81683531359226	0.9567342617456832	0	0	0	-0.4781631382303957	0.6049718711233407	-0.7391085806120945	39.38937581169834	0.5548980713557506	5.820629079665244	28.21263847807129	65.77323030941461	0	0	38.77120625972955	4.859262172822604	5.411308900250543	24.13957455280142	56.83006083177408	0	0
10.27999999999987	-0.3240712247214371	-0.007306403355942943	23.66772838164598	0	0.9399999999999999	0	44.84883354253552	-10.00017631675025	-10.00040799044441	54.81872030195823	0.9567671609990313	0	0	0	44.84883354253552	-10.00017631675025	-10.00040799044441	54.81872030195823	0.9567671609990313	0	0	0	-0.3753000640185197	0.5850250514578272	-0.6006964467426282	44.36000787767379	0.3254155671231138	5.143154456497366	26.73317470025811	66.54255890155299	0	0	38.60578595244549	4.582639089878804	5.760897517383283	27.5778615145324	55.56355851293949	0	0
10.29999999999987	-0.2762432448705771	-0.02280504099787795	23.49927218700077	0	0.9399999999999999	0	44.85126156149752	-10.00016953859285	-10.00039641168368	54.82128592961418	0.9568119396490079	0	0	0	44.85126156149752	-10.00016953859285	-10.00039641168368	54.82128592961418	0.9568119396490079	0	0	0	-0.3407939058490436	0.5983947834755105	-0.5459978694682257	51.20079618903247	0.4009996514218302	4.052915088399976	20.04533185355934	67.00496660427135	0	0	41.38774534304518	4.235906208243851	6.035015584918809	32.21944977768342	52.68170301190722	0	0
10.31999999999987	-0.2754920359006993	-0.05775134723651945	23.39379298928183	0	0.9399999999999999	0	44.85137836462873	-10.00016907519551	-10.00039571575986	54.82138020881091	0.9568135851314068	0	0	0	44.85137836462873	-10.00016907519551	-10.00039571575986	54.82138020881091	0.9568135851314068	0	0	0	-0.3594622846237668	0.5757271380291596	-0.5182401045267039	51.33339362695096	0.04385685770354703	4.244832913076182	24.11817514720776	67.81876357450879	0	0	41.54047233726333	3.585047860011434	6.537767307137163	38.04423716569162	51.25417133168687	0	0
10.33999999999987	-0.2996504103204899	-0.02222486470647261	23.43730955055855	0	0.9399999999999999	0	44.85486801815376	-10.00015979327898	-10.00037950636487	54.82510215396469	0.9568785453289189	0	0	0	44.85486801815376	-10.00015979327898	-10.00037950636487	54.82510215396469	0.9568785453289189	0	0	0	-0.3498592179218346	0.4914936931541965	-0.5844538121857025	59.48645197033817	-0.366674774932863	4.037626075068414	26.11135246214267	69.52796245252395	0	0	48.68807477354382	3.776291449453621	4.792337752472654	37.18497440815797	50.88957798769039	0	0
10.35999999999987	-0.3316506547588993	-0.08260073234735812	23.5239833616013	0	0.9399999999999999	0	44.85734081944338	-10.00015331352549	-10.00036811344878	54.82772855489718	0.9569243846726684	0	0	0	44.85734081944338	-10.00015331352549	-10.00036811344878	54.82772855489718	0.9569243846726684	0	0	0	-0.4081188373517542	0.4411343641925968	-0.6218897381439681	63.77022751915334	-0.03429514084539889	3.713070910967675	24.79034099743971	70.04377369142743	0	0	53.01292229874944	3.545341612938923	4.220530179327232	40.38636267024743	49.16417917826251	0	0
10.37999999999987	-0.4514103458413745	-0.2231592901706741	23.59773576673531	0	0.9399999999999999	0	44.86042438414105	-10.00014555776064	-10.00035422042144	54.83102591889946	0.9569819345311449	0	0	0	44.86042438414105	-10.00014555776064	-10.00035422042144	54.83102591889946	0.9569819345311449	0	0	0	-0.5754536233489957	0.3409587149808388	-0.5811144196625059	68.29801075732091	0.2632307017337585	3.345018979127564	26.43067560030025	70.28012732913305	0	0	57.42163660356437	3.581109550127085	4.377957538370841	44.71651689936733	46.2389403392938	0	0
10.39999999999987	-0.5473542721360262	-0.3607665617245336	23.5455790766997	0	0.9399999999999999	0	44.86294935020888	-10.00013939867426	-10.00034304050342	54.83374030030552	0.9570293094238356	0	0	0	44.86294935020888	-10.00013939867426	-10.00034304050342	54.83374030030552	0.9570293094238356	0	0	0	-0.7213644231089412	0.2778887510050816	-0.5318899621622249	72.51787808515206	0.8567966320811916	2.971793651198825	28.82826686204769	70.32881547195277	0	0	61.74598246142011	4.514136434383906	4.423400650965052	44.59146614507357	45.28740506021302	0	0
10.41999999999987	-0.7320425460918281	-0.509650163184593	23.56432429867648	0	0.9399999999999999	0	44.86637749644304	-10.00013139704677	-10.00032821710834	54.83744585653951	0.9570939835807365	0	0	0	44.86637749644304	-10.00013139704677	-10.00032821710834	54.83744585653951	0.9570939835807365	0	0	0	-0.9493268550547445	0.2040596872392423	-0.492716978810982	76.25878986538444	1.9079108984943	2.117753459812267	31.65953488129035	72.00469763957619	0	0	65.89213549062684	5.329854706199993	4.56821916802108	48.30028515893063	45.00532517833165	0	0
10.43999999999987	-1.141665643230711	-0.7762447203876562	23.73776497663675	0	0.9399999999999999	0	44.86863890897152	-10.00012625660205	-10.00031858047931	54.8398881435862	0.95713660953098	0	0	0	44.86863890897152	-10.00012625660205	-10.00031858047931	54.8398881435862	0.95713660953098	0	0	0	-1.43436290918606	0.126690380571257	-0.4699203859758793	80.25563455541564	3.556930171011341	0.3917473918225355	31.12471125679356	74.53659894261423	0	0	69.89891092427494	6.248118445239616	4.873033345485746	52.24378025118448	45.19139801421721	0	0
10.45999999999987	-1.332648370083387	-0.8172203553886929	23.02894854028458	0	0.9399999999999999	0	44.87340432258909	-10.00011553771207	-10.00029837217068	54.84499710117511	0.9572257776622513	0	0	0	44.87340432258909	-10.00011553771207	-10.00029837217068	54.84499710117511	0.9572257776622513	0	0	0	-1.601994979168816	-0.004944533924949721	0.1030964869980498	80.88457538074285	2.587603167906907	-0.1407603975044161	44.22327273630006	74.33389897674408	0	0	72.74509135702476	6.827906305428768	4.762120696596397	56.2143916500445	44.34456097786484	0	0
10.47999999999987	-1.467411756900759	-0.9120419803898793	22.86229604311747	0	0.9399999999999999	0	44.87572258975376	-10.00011061210298	-10.00028886319945	54.84752058069536	0.9572698206884862	0	0	0	44.87572258975376	-10.00011061210298	-10.00028886319945	54.84752058069536	0.9572698206884862	0	0	0	-1.75865249358308	-0.0448748870759289	0.1370939517104736	84.39048548676719	3.920291358455291	-1.665541652212764	44.9074855238498	78.2057568268357	0	0	77.3789689474031	7.982351772096132	4.413159463166172	57.89282930145589	43.91082393458804	0	0
